<svg xmlns="http://www.w3.org/2000/svg" viewBox="0 0 400 400" width="200" height="200" role="img">
  <polygon points="0.0,0.0 400.0,0.0 199.4,42.5" fill="hsl(220.0,65%,40.7%)" stroke="#000" stroke-width="1.20" stroke-linejoin="round"/>
  <polygon points="400.0,0.0 195.8,177.3 270.9,80.9" fill="hsl(220.0,65%,56.1%)" stroke="#000" stroke-width="1.20" stroke-linejoin="round"/>
  <polygon points="195.8,177.3 199.4,42.5 270.9,80.9" fill="hsl(220.0,65%,65.6%)" stroke="#000" stroke-width="1.20" stroke-linejoin="round"/>
  <polygon points="199.4,42.5 400.0,0.0 270.9,80.9" fill="hsl(220.0,65%,70.5%)" stroke="#000" stroke-width="1.20" stroke-linejoin="round"/>
  <polygon points="195.8,177.3 0.0,0.0 128.3,69.7" fill="hsl(220.0,65%,43.8%)" stroke="#000" stroke-width="1.20" stroke-linejoin="round"/>
  <polygon points="0.0,0.0 199.4,42.5 128.3,69.7" fill="hsl(220.0,65%,59.7%)" stroke="#000" stroke-width="1.20" stroke-linejoin="round"/>
  <polygon points="199.4,42.5 195.8,177.3 128.3,69.7" fill="hsl(220.0,65%,54.7%)" stroke="#000" stroke-width="1.20" stroke-linejoin="round"/>
  <polygon points="400.0,0.0 400.0,400.0 378.5,200.8" fill="hsl(220.0,65%,68.3%)" stroke="#000" stroke-width="1.20" stroke-linejoin="round"/>
  <polygon points="400.0,400.0 338.0,207.1 378.5,200.8" fill="hsl(220.0,65%,46.8%)" stroke="#000" stroke-width="1.20" stroke-linejoin="round"/>
  <polygon points="338.0,207.1 400.0,0.0 378.5,200.8" fill="hsl(220.0,65%,67.9%)" stroke="#000" stroke-width="1.20" stroke-linejoin="round"/>
  <polygon points="400.0,400.0 195.8,177.3 302.0,257.9" fill="hsl(220.0,65%,76.1%)" stroke="#000" stroke-width="1.20" stroke-linejoin="round"/>
  <polygon points="195.8,177.3 338.0,207.1 302.0,257.9" fill="hsl(220.0,65%,63.2%)" stroke="#000" stroke-width="1.20" stroke-linejoin="round"/>
  <polygon points="338.0,207.1 400.0,400.0 302.0,257.9" fill="hsl(220.0,65%,80.6%)" stroke="#000" stroke-width="1.20" stroke-linejoin="round"/>
  <polygon points="195.8,177.3 400.0,0.0 308.9,128.8" fill="hsl(220.0,65%,43.0%)" stroke="#000" stroke-width="1.20" stroke-linejoin="round"/>
  <polygon points="400.0,0.0 338.0,207.1 308.9,128.8" fill="hsl(220.0,65%,68.2%)" stroke="#000" stroke-width="1.20" stroke-linejoin="round"/>
  <polygon points="338.0,207.1 195.8,177.3 308.9,128.8" fill="hsl(220.0,65%,67.1%)" stroke="#000" stroke-width="1.20" stroke-linejoin="round"/>
  <polygon points="400.0,400.0 0.0,400.0 197.9,369.2" fill="hsl(220.0,65%,25.0%)" stroke="#000" stroke-width="1.20" stroke-linejoin="round"/>
  <polygon points="0.0,400.0 198.7,326.5 197.9,369.2" fill="hsl(220.0,65%,25.8%)" stroke="#000" stroke-width="1.20" stroke-linejoin="round"/>
  <polygon points="198.7,326.5 400.0,400.0 197.9,369.2" fill="hsl(220.0,65%,25.0%)" stroke="#000" stroke-width="1.20" stroke-linejoin="round"/>
  <polygon points="0.0,400.0 195.8,177.3 142.5,304.4" fill="hsl(220.0,65%,57.4%)" stroke="#000" stroke-width="1.20" stroke-linejoin="round"/>
  <polygon points="195.8,177.3 198.7,326.5 142.5,304.4" fill="hsl(220.0,65%,29.2%)" stroke="#000" stroke-width="1.20" stroke-linejoin="round"/>
  <polygon points="198.7,326.5 0.0,400.0 142.5,304.4" fill="hsl(220.0,65%,52.2%)" stroke="#000" stroke-width="1.20" stroke-linejoin="round"/>
  <polygon points="195.8,177.3 400.0,400.0 265.4,303.1" fill="hsl(220.0,65%,42.7%)" stroke="#000" stroke-width="1.20" stroke-linejoin="round"/>
  <polygon points="400.0,400.0 198.7,326.5 265.4,303.1" fill="hsl(220.0,65%,51.0%)" stroke="#000" stroke-width="1.20" stroke-linejoin="round"/>
  <polygon points="198.7,326.5 195.8,177.3 265.4,303.1" fill="hsl(220.0,65%,54.3%)" stroke="#000" stroke-width="1.20" stroke-linejoin="round"/>
  <polygon points="0.0,400.0 0.0,0.0 16.4,194.7" fill="hsl(220.0,65%,35.0%)" stroke="#000" stroke-width="1.20" stroke-linejoin="round"/>
  <polygon points="0.0,0.0 51.6,185.6 16.4,194.7" fill="hsl(220.0,65%,26.4%)" stroke="#000" stroke-width="1.20" stroke-linejoin="round"/>
  <polygon points="51.6,185.6 0.0,400.0 16.4,194.7" fill="hsl(220.0,65%,50.1%)" stroke="#000" stroke-width="1.20" stroke-linejoin="round"/>
  <polygon points="0.0,0.0 195.8,177.3 83.5,115.5" fill="hsl(220.0,65%,39.6%)" stroke="#000" stroke-width="1.20" stroke-linejoin="round"/>
  <polygon points="195.8,177.3 51.6,185.6 83.5,115.5" fill="hsl(220.0,65%,27.9%)" stroke="#000" stroke-width="1.20" stroke-linejoin="round"/>
  <polygon points="51.6,185.6 0.0,0.0 83.5,115.5" fill="hsl(220.0,65%,39.1%)" stroke="#000" stroke-width="1.20" stroke-linejoin="round"/>
  <polygon points="195.8,177.3 0.0,400.0 89.5,245.0" fill="hsl(220.0,65%,25.0%)" stroke="#000" stroke-width="1.20" stroke-linejoin="round"/>
  <polygon points="0.0,400.0 51.6,185.6 89.5,245.0" fill="hsl(220.0,65%,27.7%)" stroke="#000" stroke-width="1.20" stroke-linejoin="round"/>
  <polygon points="51.6,185.6 195.8,177.3 89.5,245.0" fill="hsl(220.0,65%,25.0%)" stroke="#000" stroke-width="1.20" stroke-linejoin="round"/>
</svg>