<svg xmlns="http://www.w3.org/2000/svg" viewBox="0 0 400 400" width="200" height="200" role="img">
  <polygon points="0.0,0.0 400.0,0.0 198.0,14.9" fill="hsl(220.0,65%,48.0%)" stroke="#000" stroke-width="1.20" stroke-linejoin="round"/>
  <polygon points="400.0,0.0 194.2,55.9 198.0,14.9" fill="hsl(220.0,65%,38.2%)" stroke="#000" stroke-width="1.20" stroke-linejoin="round"/>
  <polygon points="194.2,55.9 0.0,0.0 198.0,14.9" fill="hsl(220.0,65%,66.7%)" stroke="#000" stroke-width="1.20" stroke-linejoin="round"/>
  <polygon points="400.0,0.0 209.5,205.2 295.1,93.7" fill="hsl(220.0,65%,76.2%)" stroke="#000" stroke-width="1.20" stroke-linejoin="round"/>
  <polygon points="209.5,205.2 272.3,77.8 295.1,93.7" fill="hsl(220.0,65%,73.1%)" stroke="#000" stroke-width="1.20" stroke-linejoin="round"/>
  <polygon points="272.3,77.8 400.0,0.0 295.1,93.7" fill="hsl(220.0,65%,62.1%)" stroke="#000" stroke-width="1.20" stroke-linejoin="round"/>
  <polygon points="209.5,205.2 194.2,55.9 272.3,77.8" fill="hsl(220.0,65%,64.3%)" stroke="#000" stroke-width="1.20" stroke-linejoin="round"/>
  <polygon points="194.2,55.9 400.0,0.0 272.3,77.8" fill="hsl(220.0,65%,58.1%)" stroke="#000" stroke-width="1.20" stroke-linejoin="round"/>
  <polygon points="209.5,205.2 0.0,0.0 136.2,87.2" fill="hsl(220.0,65%,52.0%)" stroke="#000" stroke-width="1.20" stroke-linejoin="round"/>
  <polygon points="0.0,0.0 194.2,55.9 136.2,87.2" fill="hsl(220.0,65%,54.7%)" stroke="#000" stroke-width="1.20" stroke-linejoin="round"/>
  <polygon points="194.2,55.9 209.5,205.2 136.2,87.2" fill="hsl(220.0,65%,34.6%)" stroke="#000" stroke-width="1.20" stroke-linejoin="round"/>
  <polygon points="400.0,0.0 400.0,400.0 378.1,204.2" fill="hsl(220.0,65%,71.9%)" stroke="#000" stroke-width="1.20" stroke-linejoin="round"/>
  <polygon points="400.0,400.0 319.7,205.2 358.9,271.5" fill="hsl(220.0,65%,60.6%)" stroke="#000" stroke-width="1.20" stroke-linejoin="round"/>
  <polygon points="319.7,205.2 378.1,204.2 358.9,271.5" fill="hsl(220.0,65%,71.1%)" stroke="#000" stroke-width="1.20" stroke-linejoin="round"/>
  <polygon points="378.1,204.2 400.0,400.0 358.9,271.5" fill="hsl(220.0,65%,44.4%)" stroke="#000" stroke-width="1.20" stroke-linejoin="round"/>
  <polygon points="319.7,205.2 400.0,0.0 367.8,136.1" fill="hsl(220.0,65%,48.9%)" stroke="#000" stroke-width="1.20" stroke-linejoin="round"/>
  <polygon points="400.0,0.0 378.1,204.2 367.8,136.1" fill="hsl(220.0,65%,68.4%)" stroke="#000" stroke-width="1.20" stroke-linejoin="round"/>
  <polygon points="378.1,204.2 319.7,205.2 367.8,136.1" fill="hsl(220.0,65%,61.6%)" stroke="#000" stroke-width="1.20" stroke-linejoin="round"/>
  <polygon points="400.0,400.0 209.5,205.2 306.0,264.0" fill="hsl(220.0,65%,82.0%)" stroke="#000" stroke-width="1.20" stroke-linejoin="round"/>
  <polygon points="209.5,205.2 319.7,205.2 306.0,264.0" fill="hsl(220.0,65%,67.5%)" stroke="#000" stroke-width="1.20" stroke-linejoin="round"/>
  <polygon points="319.7,205.2 400.0,400.0 306.0,264.0" fill="hsl(220.0,65%,82.0%)" stroke="#000" stroke-width="1.20" stroke-linejoin="round"/>
  <polygon points="209.5,205.2 400.0,0.0 312.7,137.7" fill="hsl(220.0,65%,65.1%)" stroke="#000" stroke-width="1.20" stroke-linejoin="round"/>
  <polygon points="400.0,0.0 319.7,205.2 312.7,137.7" fill="hsl(220.0,65%,82.0%)" stroke="#000" stroke-width="1.20" stroke-linejoin="round"/>
  <polygon points="319.7,205.2 209.5,205.2 312.7,137.7" fill="hsl(220.0,65%,60.4%)" stroke="#000" stroke-width="1.20" stroke-linejoin="round"/>
  <polygon points="400.0,400.0 0.0,400.0 204.3,377.8" fill="hsl(220.0,65%,36.6%)" stroke="#000" stroke-width="1.20" stroke-linejoin="round"/>
  <polygon points="0.0,400.0 221.3,334.2 204.3,377.8" fill="hsl(220.0,65%,60.5%)" stroke="#000" stroke-width="1.20" stroke-linejoin="round"/>
  <polygon points="221.3,334.2 400.0,400.0 204.3,377.8" fill="hsl(220.0,65%,61.0%)" stroke="#000" stroke-width="1.20" stroke-linejoin="round"/>
  <polygon points="0.0,400.0 209.5,205.2 136.2,305.8" fill="hsl(220.0,65%,40.7%)" stroke="#000" stroke-width="1.20" stroke-linejoin="round"/>
  <polygon points="209.5,205.2 221.3,334.2 136.2,305.8" fill="hsl(220.0,65%,46.2%)" stroke="#000" stroke-width="1.20" stroke-linejoin="round"/>
  <polygon points="221.3,334.2 0.0,400.0 113.4,350.5" fill="hsl(220.0,65%,29.1%)" stroke="#000" stroke-width="1.20" stroke-linejoin="round"/>
  <polygon points="0.0,400.0 136.2,305.8 113.4,350.5" fill="hsl(220.0,65%,32.0%)" stroke="#000" stroke-width="1.20" stroke-linejoin="round"/>
  <polygon points="136.2,305.8 221.3,334.2 113.4,350.5" fill="hsl(220.0,65%,47.3%)" stroke="#000" stroke-width="1.20" stroke-linejoin="round"/>
  <polygon points="209.5,205.2 400.0,400.0 274.3,310.9" fill="hsl(220.0,65%,62.4%)" stroke="#000" stroke-width="1.20" stroke-linejoin="round"/>
  <polygon points="400.0,400.0 221.3,334.2 274.3,310.9" fill="hsl(220.0,65%,76.9%)" stroke="#000" stroke-width="1.20" stroke-linejoin="round"/>
  <polygon points="221.3,334.2 209.5,205.2 274.3,310.9" fill="hsl(220.0,65%,76.4%)" stroke="#000" stroke-width="1.20" stroke-linejoin="round"/>
  <polygon points="0.0,400.0 0.0,0.0 15.1,202.7" fill="hsl(220.0,65%,28.4%)" stroke="#000" stroke-width="1.20" stroke-linejoin="round"/>
  <polygon points="0.0,0.0 60.5,210.6 15.1,202.7" fill="hsl(220.0,65%,25.0%)" stroke="#000" stroke-width="1.20" stroke-linejoin="round"/>
  <polygon points="60.5,210.6 0.0,400.0 15.1,202.7" fill="hsl(220.0,65%,25.0%)" stroke="#000" stroke-width="1.20" stroke-linejoin="round"/>
  <polygon points="0.0,0.0 209.5,205.2 91.5,137.8" fill="hsl(220.0,65%,55.2%)" stroke="#000" stroke-width="1.20" stroke-linejoin="round"/>
  <polygon points="209.5,205.2 60.5,210.6 91.5,137.8" fill="hsl(220.0,65%,49.3%)" stroke="#000" stroke-width="1.20" stroke-linejoin="round"/>
  <polygon points="60.5,210.6 0.0,0.0 91.5,137.8" fill="hsl(220.0,65%,55.5%)" stroke="#000" stroke-width="1.20" stroke-linejoin="round"/>
  <polygon points="209.5,205.2 0.0,400.0 82.3,277.9" fill="hsl(220.0,65%,54.1%)" stroke="#000" stroke-width="1.20" stroke-linejoin="round"/>
  <polygon points="0.0,400.0 60.5,210.6 82.3,277.9" fill="hsl(220.0,65%,36.2%)" stroke="#000" stroke-width="1.20" stroke-linejoin="round"/>
  <polygon points="60.5,210.6 209.5,205.2 82.3,277.9" fill="hsl(220.0,65%,44.1%)" stroke="#000" stroke-width="1.20" stroke-linejoin="round"/>
</svg>