<svg xmlns="http://www.w3.org/2000/svg" viewBox="0 0 400 400" width="200" height="200" role="img">
  <polygon points="0.0,0.0 400.0,0.0 205.0,19.5" fill="hsl(144.0,65%,55.2%)" stroke="#000" stroke-width="1.20" stroke-linejoin="round"/>
  <polygon points="400.0,0.0 201.8,89.8 205.0,19.5" fill="hsl(144.0,65%,52.7%)" stroke="#000" stroke-width="1.20" stroke-linejoin="round"/>
  <polygon points="201.8,89.8 0.0,0.0 205.0,19.5" fill="hsl(144.0,65%,38.5%)" stroke="#000" stroke-width="1.20" stroke-linejoin="round"/>
  <polygon points="400.0,0.0 216.1,224.1 269.0,94.8" fill="hsl(144.0,65%,44.9%)" stroke="#000" stroke-width="1.20" stroke-linejoin="round"/>
  <polygon points="216.1,224.1 201.8,89.8 269.0,94.8" fill="hsl(144.0,65%,25.0%)" stroke="#000" stroke-width="1.20" stroke-linejoin="round"/>
  <polygon points="201.8,89.8 400.0,0.0 269.0,94.8" fill="hsl(144.0,65%,52.6%)" stroke="#000" stroke-width="1.20" stroke-linejoin="round"/>
  <polygon points="216.1,224.1 0.0,0.0 201.8,89.8" fill="hsl(144.0,65%,56.7%)" stroke="#000" stroke-width="1.20" stroke-linejoin="round"/>
  <polygon points="400.0,0.0 400.0,400.0 376.0,196.9" fill="hsl(144.0,65%,65.7%)" stroke="#000" stroke-width="1.20" stroke-linejoin="round"/>
  <polygon points="400.0,400.0 333.1,197.2 376.0,196.9" fill="hsl(144.0,65%,68.0%)" stroke="#000" stroke-width="1.20" stroke-linejoin="round"/>
  <polygon points="333.1,197.2 400.0,0.0 376.0,196.9" fill="hsl(144.0,65%,54.7%)" stroke="#000" stroke-width="1.20" stroke-linejoin="round"/>
  <polygon points="400.0,400.0 216.1,224.1 333.1,197.2" fill="hsl(144.0,65%,67.6%)" stroke="#000" stroke-width="1.20" stroke-linejoin="round"/>
  <polygon points="216.1,224.1 400.0,0.0 333.1,197.2" fill="hsl(144.0,65%,67.0%)" stroke="#000" stroke-width="1.20" stroke-linejoin="round"/>
  <polygon points="400.0,400.0 0.0,400.0 212.0,350.2" fill="hsl(144.0,65%,66.4%)" stroke="#000" stroke-width="1.20" stroke-linejoin="round"/>
  <polygon points="0.0,400.0 216.1,224.1 212.0,350.2" fill="hsl(144.0,65%,60.2%)" stroke="#000" stroke-width="1.20" stroke-linejoin="round"/>
  <polygon points="216.1,224.1 400.0,400.0 212.0,350.2" fill="hsl(144.0,65%,59.4%)" stroke="#000" stroke-width="1.20" stroke-linejoin="round"/>
  <polygon points="0.0,400.0 0.0,0.0 25.4,199.5" fill="hsl(144.0,65%,59.2%)" stroke="#000" stroke-width="1.20" stroke-linejoin="round"/>
  <polygon points="0.0,0.0 77.8,208.1 25.4,199.5" fill="hsl(144.0,65%,43.4%)" stroke="#000" stroke-width="1.20" stroke-linejoin="round"/>
  <polygon points="77.8,208.1 0.0,400.0 25.4,199.5" fill="hsl(144.0,65%,64.5%)" stroke="#000" stroke-width="1.20" stroke-linejoin="round"/>
  <polygon points="0.0,0.0 216.1,224.1 97.0,144.1" fill="hsl(144.0,65%,27.8%)" stroke="#000" stroke-width="1.20" stroke-linejoin="round"/>
  <polygon points="216.1,224.1 77.8,208.1 97.0,144.1" fill="hsl(144.0,65%,26.5%)" stroke="#000" stroke-width="1.20" stroke-linejoin="round"/>
  <polygon points="77.8,208.1 0.0,0.0 97.0,144.1" fill="hsl(144.0,65%,45.1%)" stroke="#000" stroke-width="1.20" stroke-linejoin="round"/>
  <polygon points="216.1,224.1 0.0,400.0 92.6,282.7" fill="hsl(144.0,65%,29.2%)" stroke="#000" stroke-width="1.20" stroke-linejoin="round"/>
  <polygon points="0.0,400.0 77.8,208.1 92.6,282.7" fill="hsl(144.0,65%,42.6%)" stroke="#000" stroke-width="1.20" stroke-linejoin="round"/>
  <polygon points="77.8,208.1 216.1,224.1 92.6,282.7" fill="hsl(144.0,65%,26.8%)" stroke="#000" stroke-width="1.20" stroke-linejoin="round"/>
</svg>