<svg xmlns="http://www.w3.org/2000/svg" viewBox="0 0 400 400" width="200" height="200" role="img">
  <polygon points="0.0,0.0 400.0,0.0 193.3,68.7" fill="hsl(220.0,65%,73.8%)" stroke="#000" stroke-width="1.20" stroke-linejoin="round"/>
  <polygon points="400.0,0.0 192.1,179.1 193.3,68.7" fill="hsl(220.0,65%,80.9%)" stroke="#000" stroke-width="1.20" stroke-linejoin="round"/>
  <polygon points="192.1,179.1 0.0,0.0 193.3,68.7" fill="hsl(220.0,65%,81.3%)" stroke="#000" stroke-width="1.20" stroke-linejoin="round"/>
  <polygon points="400.0,0.0 400.0,400.0 378.2,196.7" fill="hsl(220.0,65%,36.1%)" stroke="#000" stroke-width="1.20" stroke-linejoin="round"/>
  <polygon points="400.0,400.0 326.5,181.0 378.2,196.7" fill="hsl(220.0,65%,35.7%)" stroke="#000" stroke-width="1.20" stroke-linejoin="round"/>
  <polygon points="326.5,181.0 400.0,0.0 378.2,196.7" fill="hsl(220.0,65%,53.0%)" stroke="#000" stroke-width="1.20" stroke-linejoin="round"/>
  <polygon points="400.0,400.0 192.1,179.1 305.2,253.9" fill="hsl(220.0,65%,50.3%)" stroke="#000" stroke-width="1.20" stroke-linejoin="round"/>
  <polygon points="192.1,179.1 326.5,181.0 305.2,253.9" fill="hsl(220.0,65%,56.9%)" stroke="#000" stroke-width="1.20" stroke-linejoin="round"/>
  <polygon points="326.5,181.0 400.0,400.0 305.2,253.9" fill="hsl(220.0,65%,48.4%)" stroke="#000" stroke-width="1.20" stroke-linejoin="round"/>
  <polygon points="192.1,179.1 400.0,0.0 326.5,181.0" fill="hsl(220.0,65%,50.5%)" stroke="#000" stroke-width="1.20" stroke-linejoin="round"/>
  <polygon points="400.0,400.0 0.0,400.0 194.6,375.5" fill="hsl(220.0,65%,25.0%)" stroke="#000" stroke-width="1.20" stroke-linejoin="round"/>
  <polygon points="0.0,400.0 192.5,325.3 194.6,375.5" fill="hsl(220.0,65%,50.7%)" stroke="#000" stroke-width="1.20" stroke-linejoin="round"/>
  <polygon points="192.5,325.3 400.0,400.0 194.6,375.5" fill="hsl(220.0,65%,29.7%)" stroke="#000" stroke-width="1.20" stroke-linejoin="round"/>
  <polygon points="0.0,400.0 192.1,179.1 132.1,312.5" fill="hsl(220.0,65%,25.0%)" stroke="#000" stroke-width="1.20" stroke-linejoin="round"/>
  <polygon points="192.1,179.1 192.5,325.3 132.1,312.5" fill="hsl(220.0,65%,45.9%)" stroke="#000" stroke-width="1.20" stroke-linejoin="round"/>
  <polygon points="192.5,325.3 0.0,400.0 132.1,312.5" fill="hsl(220.0,65%,25.0%)" stroke="#000" stroke-width="1.20" stroke-linejoin="round"/>
  <polygon points="192.1,179.1 400.0,400.0 272.9,304.0" fill="hsl(220.0,65%,47.6%)" stroke="#000" stroke-width="1.20" stroke-linejoin="round"/>
  <polygon points="400.0,400.0 192.5,325.3 272.9,304.0" fill="hsl(220.0,65%,43.8%)" stroke="#000" stroke-width="1.20" stroke-linejoin="round"/>
  <polygon points="192.5,325.3 192.1,179.1 272.9,304.0" fill="hsl(220.0,65%,63.6%)" stroke="#000" stroke-width="1.20" stroke-linejoin="round"/>
  <polygon points="0.0,400.0 0.0,0.0 56.0,201.2" fill="hsl(220.0,65%,49.0%)" stroke="#000" stroke-width="1.20" stroke-linejoin="round"/>
  <polygon points="0.0,0.0 192.1,179.1 80.5,125.4" fill="hsl(220.0,65%,68.5%)" stroke="#000" stroke-width="1.20" stroke-linejoin="round"/>
  <polygon points="192.1,179.1 56.0,201.2 80.5,125.4" fill="hsl(220.0,65%,74.4%)" stroke="#000" stroke-width="1.20" stroke-linejoin="round"/>
  <polygon points="56.0,201.2 0.0,0.0 80.5,125.4" fill="hsl(220.0,65%,63.5%)" stroke="#000" stroke-width="1.20" stroke-linejoin="round"/>
  <polygon points="192.1,179.1 0.0,400.0 56.0,201.2" fill="hsl(220.0,65%,49.9%)" stroke="#000" stroke-width="1.20" stroke-linejoin="round"/>
</svg>