<svg xmlns="http://www.w3.org/2000/svg" viewBox="0 0 400 400" width="200" height="200" role="img">
  <polygon points="0.0,0.0 400.0,0.0 198.0,16.8" fill="hsl(288.0,65%,36.9%)" stroke="#000" stroke-width="1.20" stroke-linejoin="round"/>
  <polygon points="400.0,0.0 198.2,70.1 198.0,16.8" fill="hsl(288.0,65%,45.1%)" stroke="#000" stroke-width="1.20" stroke-linejoin="round"/>
  <polygon points="198.2,70.1 0.0,0.0 198.0,16.8" fill="hsl(288.0,65%,33.8%)" stroke="#000" stroke-width="1.20" stroke-linejoin="round"/>
  <polygon points="400.0,0.0 197.1,170.3 198.2,70.1" fill="hsl(288.0,65%,27.3%)" stroke="#000" stroke-width="1.20" stroke-linejoin="round"/>
  <polygon points="197.1,170.3 0.0,0.0 198.2,70.1" fill="hsl(288.0,65%,47.9%)" stroke="#000" stroke-width="1.20" stroke-linejoin="round"/>
  <polygon points="400.0,0.0 400.0,400.0 378.7,185.7" fill="hsl(288.0,65%,44.1%)" stroke="#000" stroke-width="1.20" stroke-linejoin="round"/>
  <polygon points="400.0,400.0 322.6,184.4 378.7,185.7" fill="hsl(288.0,65%,25.0%)" stroke="#000" stroke-width="1.20" stroke-linejoin="round"/>
  <polygon points="322.6,184.4 400.0,0.0 378.7,185.7" fill="hsl(288.0,65%,44.5%)" stroke="#000" stroke-width="1.20" stroke-linejoin="round"/>
  <polygon points="400.0,400.0 197.1,170.3 322.6,184.4" fill="hsl(288.0,65%,33.5%)" stroke="#000" stroke-width="1.20" stroke-linejoin="round"/>
  <polygon points="197.1,170.3 400.0,0.0 322.6,184.4" fill="hsl(288.0,65%,25.0%)" stroke="#000" stroke-width="1.20" stroke-linejoin="round"/>
  <polygon points="400.0,400.0 0.0,400.0 207.8,340.3" fill="hsl(288.0,65%,69.2%)" stroke="#000" stroke-width="1.20" stroke-linejoin="round"/>
  <polygon points="0.0,400.0 197.1,170.3 140.1,306.1" fill="hsl(288.0,65%,46.2%)" stroke="#000" stroke-width="1.20" stroke-linejoin="round"/>
  <polygon points="197.1,170.3 207.8,340.3 140.1,306.1" fill="hsl(288.0,65%,70.9%)" stroke="#000" stroke-width="1.20" stroke-linejoin="round"/>
  <polygon points="207.8,340.3 0.0,400.0 140.1,306.1" fill="hsl(288.0,65%,46.6%)" stroke="#000" stroke-width="1.20" stroke-linejoin="round"/>
  <polygon points="197.1,170.3 400.0,400.0 273.0,294.9" fill="hsl(288.0,65%,71.1%)" stroke="#000" stroke-width="1.20" stroke-linejoin="round"/>
  <polygon points="400.0,400.0 207.8,340.3 273.0,294.9" fill="hsl(288.0,65%,80.2%)" stroke="#000" stroke-width="1.20" stroke-linejoin="round"/>
  <polygon points="207.8,340.3 197.1,170.3 273.0,294.9" fill="hsl(288.0,65%,75.7%)" stroke="#000" stroke-width="1.20" stroke-linejoin="round"/>
  <polygon points="0.0,400.0 0.0,0.0 24.2,203.4" fill="hsl(288.0,65%,33.5%)" stroke="#000" stroke-width="1.20" stroke-linejoin="round"/>
  <polygon points="0.0,0.0 67.9,191.5 24.2,203.4" fill="hsl(288.0,65%,46.3%)" stroke="#000" stroke-width="1.20" stroke-linejoin="round"/>
  <polygon points="67.9,191.5 0.0,400.0 24.2,203.4" fill="hsl(288.0,65%,43.5%)" stroke="#000" stroke-width="1.20" stroke-linejoin="round"/>
  <polygon points="0.0,0.0 197.1,170.3 90.8,115.3" fill="hsl(288.0,65%,58.3%)" stroke="#000" stroke-width="1.20" stroke-linejoin="round"/>
  <polygon points="197.1,170.3 67.9,191.5 90.8,115.3" fill="hsl(288.0,65%,58.5%)" stroke="#000" stroke-width="1.20" stroke-linejoin="round"/>
  <polygon points="67.9,191.5 0.0,0.0 90.8,115.3" fill="hsl(288.0,65%,53.6%)" stroke="#000" stroke-width="1.20" stroke-linejoin="round"/>
  <polygon points="197.1,170.3 0.0,400.0 67.9,191.5" fill="hsl(288.0,65%,66.3%)" stroke="#000" stroke-width="1.20" stroke-linejoin="round"/>
</svg>