<svg xmlns="http://www.w3.org/2000/svg" viewBox="0 0 400 400" width="200" height="200" role="img">
  <polygon points="0.0,0.0 400.0,0.0 202.7,189.8" fill="hsl(85.0,65%,57.3%)" stroke="#000" stroke-width="0.80" stroke-linejoin="round"/>
  <polygon points="400.0,0.0 400.0,400.0 340.5,189.6" fill="hsl(85.0,65%,53.9%)" stroke="#000" stroke-width="0.80" stroke-linejoin="round"/>
  <polygon points="400.0,400.0 202.7,189.8 340.5,189.6" fill="hsl(85.0,65%,59.0%)" stroke="#000" stroke-width="0.80" stroke-linejoin="round"/>
  <polygon points="202.7,189.8 400.0,0.0 340.5,189.6" fill="hsl(85.0,65%,69.1%)" stroke="#000" stroke-width="0.80" stroke-linejoin="round"/>
  <polygon points="400.0,400.0 0.0,400.0 207.6,317.6" fill="hsl(85.0,65%,53.0%)" stroke="#000" stroke-width="0.80" stroke-linejoin="round"/>
  <polygon points="0.0,400.0 202.7,189.8 207.6,317.6" fill="hsl(85.0,65%,55.4%)" stroke="#000" stroke-width="0.80" stroke-linejoin="round"/>
  <polygon points="202.7,189.8 400.0,400.0 207.6,317.6" fill="hsl(85.0,65%,53.9%)" stroke="#000" stroke-width="0.80" stroke-linejoin="round"/>
  <polygon points="0.0,400.0 0.0,0.0 68.4,197.4" fill="hsl(85.0,65%,37.3%)" stroke="#000" stroke-width="0.80" stroke-linejoin="round"/>
  <polygon points="0.0,0.0 202.7,189.8 68.4,197.4" fill="hsl(85.0,65%,55.8%)" stroke="#000" stroke-width="0.80" stroke-linejoin="round"/>
  <polygon points="202.7,189.8 0.0,400.0 68.4,197.4" fill="hsl(85.0,65%,45.2%)" stroke="#000" stroke-width="0.80" stroke-linejoin="round"/>
</svg>