<svg xmlns="http://www.w3.org/2000/svg" viewBox="0 0 400 400" width="200" height="200" role="img">
  <polygon points="0.0,0.0 400.0,0.0 200.2,26.2" fill="hsl(10.0,65%,47.6%)" stroke="#000" stroke-width="0.80" stroke-linejoin="round"/>
  <polygon points="400.0,0.0 200.0,78.2 200.2,26.2" fill="hsl(10.0,65%,42.6%)" stroke="#000" stroke-width="0.80" stroke-linejoin="round"/>
  <polygon points="200.0,78.2 0.0,0.0 200.2,26.2" fill="hsl(10.0,65%,47.6%)" stroke="#000" stroke-width="0.80" stroke-linejoin="round"/>
  <polygon points="400.0,0.0 198.6,222.4 264.3,111.8" fill="hsl(10.0,65%,64.7%)" stroke="#000" stroke-width="0.80" stroke-linejoin="round"/>
  <polygon points="198.6,222.4 200.0,78.2 264.3,111.8" fill="hsl(10.0,65%,46.5%)" stroke="#000" stroke-width="0.80" stroke-linejoin="round"/>
  <polygon points="200.0,78.2 400.0,0.0 264.3,111.8" fill="hsl(10.0,65%,68.4%)" stroke="#000" stroke-width="0.80" stroke-linejoin="round"/>
  <polygon points="198.6,222.4 0.0,0.0 132.3,107.8" fill="hsl(10.0,65%,54.5%)" stroke="#000" stroke-width="0.80" stroke-linejoin="round"/>
  <polygon points="0.0,0.0 200.0,78.2 132.3,107.8" fill="hsl(10.0,65%,57.9%)" stroke="#000" stroke-width="0.80" stroke-linejoin="round"/>
  <polygon points="200.0,78.2 198.6,222.4 132.3,107.8" fill="hsl(10.0,65%,50.8%)" stroke="#000" stroke-width="0.80" stroke-linejoin="round"/>
  <polygon points="400.0,0.0 400.0,400.0 382.2,216.9" fill="hsl(10.0,65%,59.6%)" stroke="#000" stroke-width="0.80" stroke-linejoin="round"/>
  <polygon points="400.0,400.0 332.4,219.7 382.2,216.9" fill="hsl(10.0,65%,42.5%)" stroke="#000" stroke-width="0.80" stroke-linejoin="round"/>
  <polygon points="332.4,219.7 400.0,0.0 382.2,216.9" fill="hsl(10.0,65%,34.7%)" stroke="#000" stroke-width="0.80" stroke-linejoin="round"/>
  <polygon points="400.0,400.0 198.6,222.4 332.4,219.7" fill="hsl(10.0,65%,25.6%)" stroke="#000" stroke-width="0.80" stroke-linejoin="round"/>
  <polygon points="198.6,222.4 400.0,0.0 310.4,146.8" fill="hsl(10.0,65%,51.0%)" stroke="#000" stroke-width="0.80" stroke-linejoin="round"/>
  <polygon points="400.0,0.0 332.4,219.7 310.4,146.8" fill="hsl(10.0,65%,53.6%)" stroke="#000" stroke-width="0.80" stroke-linejoin="round"/>
  <polygon points="332.4,219.7 198.6,222.4 310.4,146.8" fill="hsl(10.0,65%,37.0%)" stroke="#000" stroke-width="0.80" stroke-linejoin="round"/>
  <polygon points="400.0,400.0 0.0,400.0 200.9,338.3" fill="hsl(10.0,65%,59.4%)" stroke="#000" stroke-width="0.80" stroke-linejoin="round"/>
  <polygon points="0.0,400.0 198.6,222.4 200.9,338.3" fill="hsl(10.0,65%,52.7%)" stroke="#000" stroke-width="0.80" stroke-linejoin="round"/>
  <polygon points="198.6,222.4 400.0,400.0 200.9,338.3" fill="hsl(10.0,65%,46.6%)" stroke="#000" stroke-width="0.80" stroke-linejoin="round"/>
  <polygon points="0.0,400.0 0.0,0.0 27.5,205.7" fill="hsl(10.0,65%,36.1%)" stroke="#000" stroke-width="0.80" stroke-linejoin="round"/>
  <polygon points="0.0,0.0 82.8,217.1 27.5,205.7" fill="hsl(10.0,65%,26.7%)" stroke="#000" stroke-width="0.80" stroke-linejoin="round"/>
  <polygon points="82.8,217.1 0.0,400.0 27.5,205.7" fill="hsl(10.0,65%,28.8%)" stroke="#000" stroke-width="0.80" stroke-linejoin="round"/>
  <polygon points="0.0,0.0 198.6,222.4 82.8,217.1" fill="hsl(10.0,65%,42.0%)" stroke="#000" stroke-width="0.80" stroke-linejoin="round"/>
  <polygon points="198.6,222.4 0.0,400.0 82.8,217.1" fill="hsl(10.0,65%,30.7%)" stroke="#000" stroke-width="0.80" stroke-linejoin="round"/>
</svg>