<svg xmlns="http://www.w3.org/2000/svg" viewBox="0 0 400 400" width="200" height="200" role="img">
  <polygon points="0.0,0.0 400.0,0.0 210.4,28.0" fill="hsl(85.0,65%,82.0%)" stroke="#000" stroke-width="0.80" stroke-linejoin="round"/>
  <polygon points="400.0,0.0 209.8,65.7 210.4,28.0" fill="hsl(85.0,65%,82.0%)" stroke="#000" stroke-width="0.80" stroke-linejoin="round"/>
  <polygon points="209.8,65.7 0.0,0.0 210.4,28.0" fill="hsl(85.0,65%,67.9%)" stroke="#000" stroke-width="0.80" stroke-linejoin="round"/>
  <polygon points="400.0,0.0 191.0,231.4 272.4,109.0" fill="hsl(85.0,65%,57.4%)" stroke="#000" stroke-width="0.80" stroke-linejoin="round"/>
  <polygon points="191.0,231.4 209.8,65.7 272.4,109.0" fill="hsl(85.0,65%,48.6%)" stroke="#000" stroke-width="0.80" stroke-linejoin="round"/>
  <polygon points="209.8,65.7 400.0,0.0 296.6,53.9" fill="hsl(85.0,65%,71.8%)" stroke="#000" stroke-width="0.80" stroke-linejoin="round"/>
  <polygon points="400.0,0.0 272.4,109.0 296.6,53.9" fill="hsl(85.0,65%,69.7%)" stroke="#000" stroke-width="0.80" stroke-linejoin="round"/>
  <polygon points="272.4,109.0 209.8,65.7 296.6,53.9" fill="hsl(85.0,65%,50.2%)" stroke="#000" stroke-width="0.80" stroke-linejoin="round"/>
  <polygon points="191.0,231.4 0.0,0.0 133.0,98.3" fill="hsl(85.0,65%,57.2%)" stroke="#000" stroke-width="0.80" stroke-linejoin="round"/>
  <polygon points="0.0,0.0 209.8,65.7 133.0,98.3" fill="hsl(85.0,65%,48.5%)" stroke="#000" stroke-width="0.80" stroke-linejoin="round"/>
  <polygon points="209.8,65.7 191.0,231.4 182.8,130.6" fill="hsl(85.0,65%,33.3%)" stroke="#000" stroke-width="0.80" stroke-linejoin="round"/>
  <polygon points="191.0,231.4 133.0,98.3 182.8,130.6" fill="hsl(85.0,65%,56.1%)" stroke="#000" stroke-width="0.80" stroke-linejoin="round"/>
  <polygon points="133.0,98.3 209.8,65.7 182.8,130.6" fill="hsl(85.0,65%,56.0%)" stroke="#000" stroke-width="0.80" stroke-linejoin="round"/>
  <polygon points="400.0,0.0 400.0,400.0 370.4,202.2" fill="hsl(85.0,65%,70.7%)" stroke="#000" stroke-width="0.80" stroke-linejoin="round"/>
  <polygon points="400.0,400.0 330.9,209.3 370.4,202.2" fill="hsl(85.0,65%,54.6%)" stroke="#000" stroke-width="0.80" stroke-linejoin="round"/>
  <polygon points="330.9,209.3 400.0,0.0 370.4,202.2" fill="hsl(85.0,65%,53.3%)" stroke="#000" stroke-width="0.80" stroke-linejoin="round"/>
  <polygon points="400.0,400.0 191.0,231.4 306.1,274.6" fill="hsl(85.0,65%,49.3%)" stroke="#000" stroke-width="0.80" stroke-linejoin="round"/>
  <polygon points="191.0,231.4 330.9,209.3 306.1,274.6" fill="hsl(85.0,65%,38.0%)" stroke="#000" stroke-width="0.80" stroke-linejoin="round"/>
  <polygon points="330.9,209.3 400.0,400.0 306.1,274.6" fill="hsl(85.0,65%,50.2%)" stroke="#000" stroke-width="0.80" stroke-linejoin="round"/>
  <polygon points="191.0,231.4 400.0,0.0 298.4,151.6" fill="hsl(85.0,65%,64.7%)" stroke="#000" stroke-width="0.80" stroke-linejoin="round"/>
  <polygon points="400.0,0.0 330.9,209.3 298.4,151.6" fill="hsl(85.0,65%,61.8%)" stroke="#000" stroke-width="0.80" stroke-linejoin="round"/>
  <polygon points="330.9,209.3 191.0,231.4 298.4,151.6" fill="hsl(85.0,65%,34.3%)" stroke="#000" stroke-width="0.80" stroke-linejoin="round"/>
  <polygon points="400.0,400.0 0.0,400.0 199.3,381.4" fill="hsl(85.0,65%,66.3%)" stroke="#000" stroke-width="0.80" stroke-linejoin="round"/>
  <polygon points="0.0,400.0 191.3,346.3 199.3,381.4" fill="hsl(85.0,65%,48.8%)" stroke="#000" stroke-width="0.80" stroke-linejoin="round"/>
  <polygon points="191.3,346.3 400.0,400.0 199.3,381.4" fill="hsl(85.0,65%,64.8%)" stroke="#000" stroke-width="0.80" stroke-linejoin="round"/>
  <polygon points="0.0,400.0 191.0,231.4 126.2,319.0" fill="hsl(85.0,65%,55.8%)" stroke="#000" stroke-width="0.80" stroke-linejoin="round"/>
  <polygon points="191.0,231.4 191.3,346.3 126.2,319.0" fill="hsl(85.0,65%,66.6%)" stroke="#000" stroke-width="0.80" stroke-linejoin="round"/>
  <polygon points="191.3,346.3 0.0,400.0 126.2,319.0" fill="hsl(85.0,65%,73.9%)" stroke="#000" stroke-width="0.80" stroke-linejoin="round"/>
  <polygon points="191.0,231.4 400.0,400.0 249.9,327.0" fill="hsl(85.0,65%,68.2%)" stroke="#000" stroke-width="0.80" stroke-linejoin="round"/>
  <polygon points="400.0,400.0 191.3,346.3 249.9,327.0" fill="hsl(85.0,65%,55.4%)" stroke="#000" stroke-width="0.80" stroke-linejoin="round"/>
  <polygon points="191.3,346.3 191.0,231.4 249.9,327.0" fill="hsl(85.0,65%,45.8%)" stroke="#000" stroke-width="0.80" stroke-linejoin="round"/>
  <polygon points="0.0,400.0 0.0,0.0 19.6,200.8" fill="hsl(85.0,65%,36.4%)" stroke="#000" stroke-width="0.80" stroke-linejoin="round"/>
  <polygon points="0.0,0.0 62.8,216.8 19.6,200.8" fill="hsl(85.0,65%,58.4%)" stroke="#000" stroke-width="0.80" stroke-linejoin="round"/>
  <polygon points="62.8,216.8 0.0,400.0 19.6,200.8" fill="hsl(85.0,65%,55.9%)" stroke="#000" stroke-width="0.80" stroke-linejoin="round"/>
  <polygon points="0.0,0.0 191.0,231.4 84.5,156.2" fill="hsl(85.0,65%,46.5%)" stroke="#000" stroke-width="0.80" stroke-linejoin="round"/>
  <polygon points="191.0,231.4 62.8,216.8 84.5,156.2" fill="hsl(85.0,65%,28.9%)" stroke="#000" stroke-width="0.80" stroke-linejoin="round"/>
  <polygon points="62.8,216.8 0.0,0.0 84.5,156.2" fill="hsl(85.0,65%,30.6%)" stroke="#000" stroke-width="0.80" stroke-linejoin="round"/>
  <polygon points="191.0,231.4 0.0,400.0 80.1,280.5" fill="hsl(85.0,65%,38.4%)" stroke="#000" stroke-width="0.80" stroke-linejoin="round"/>
  <polygon points="0.0,400.0 62.8,216.8 80.1,280.5" fill="hsl(85.0,65%,45.9%)" stroke="#000" stroke-width="0.80" stroke-linejoin="round"/>
  <polygon points="62.8,216.8 191.0,231.4 80.1,280.5" fill="hsl(85.0,65%,37.8%)" stroke="#000" stroke-width="0.80" stroke-linejoin="round"/>
</svg>