<svg xmlns="http://www.w3.org/2000/svg" viewBox="0 0 400 400" width="200" height="200" role="img">
  <polygon points="0.0,0.0 400.0,0.0 198.5,26.3" fill="hsl(10.0,65%,59.3%)" stroke="#000" stroke-width="0.80" stroke-linejoin="round"/>
  <polygon points="400.0,0.0 196.3,84.6 263.4,31.0" fill="hsl(10.0,65%,48.5%)" stroke="#000" stroke-width="0.80" stroke-linejoin="round"/>
  <polygon points="196.3,84.6 198.5,26.3 263.4,31.0" fill="hsl(10.0,65%,55.7%)" stroke="#000" stroke-width="0.80" stroke-linejoin="round"/>
  <polygon points="198.5,26.3 400.0,0.0 263.4,31.0" fill="hsl(10.0,65%,44.6%)" stroke="#000" stroke-width="0.80" stroke-linejoin="round"/>
  <polygon points="196.3,84.6 0.0,0.0 131.7,37.5" fill="hsl(10.0,65%,50.2%)" stroke="#000" stroke-width="0.80" stroke-linejoin="round"/>
  <polygon points="0.0,0.0 198.5,26.3 131.7,37.5" fill="hsl(10.0,65%,35.3%)" stroke="#000" stroke-width="0.80" stroke-linejoin="round"/>
  <polygon points="198.5,26.3 196.3,84.6 131.7,37.5" fill="hsl(10.0,65%,44.5%)" stroke="#000" stroke-width="0.80" stroke-linejoin="round"/>
  <polygon points="400.0,0.0 210.6,219.7 272.7,101.2" fill="hsl(10.0,65%,69.6%)" stroke="#000" stroke-width="0.80" stroke-linejoin="round"/>
  <polygon points="210.6,219.7 196.3,84.6 272.7,101.2" fill="hsl(10.0,65%,66.4%)" stroke="#000" stroke-width="0.80" stroke-linejoin="round"/>
  <polygon points="196.3,84.6 400.0,0.0 272.7,101.2" fill="hsl(10.0,65%,58.2%)" stroke="#000" stroke-width="0.80" stroke-linejoin="round"/>
  <polygon points="210.6,219.7 0.0,0.0 137.5,97.3" fill="hsl(10.0,65%,69.8%)" stroke="#000" stroke-width="0.80" stroke-linejoin="round"/>
  <polygon points="0.0,0.0 196.3,84.6 137.5,97.3" fill="hsl(10.0,65%,67.3%)" stroke="#000" stroke-width="0.80" stroke-linejoin="round"/>
  <polygon points="196.3,84.6 210.6,219.7 137.5,97.3" fill="hsl(10.0,65%,49.4%)" stroke="#000" stroke-width="0.80" stroke-linejoin="round"/>
  <polygon points="400.0,0.0 400.0,400.0 372.1,202.0" fill="hsl(10.0,65%,30.1%)" stroke="#000" stroke-width="0.80" stroke-linejoin="round"/>
  <polygon points="400.0,400.0 336.2,206.8 372.1,202.0" fill="hsl(10.0,65%,34.6%)" stroke="#000" stroke-width="0.80" stroke-linejoin="round"/>
  <polygon points="336.2,206.8 400.0,0.0 372.1,202.0" fill="hsl(10.0,65%,56.2%)" stroke="#000" stroke-width="0.80" stroke-linejoin="round"/>
  <polygon points="400.0,400.0 210.6,219.7 309.4,272.6" fill="hsl(10.0,65%,64.8%)" stroke="#000" stroke-width="0.80" stroke-linejoin="round"/>
  <polygon points="210.6,219.7 336.2,206.8 309.4,272.6" fill="hsl(10.0,65%,42.6%)" stroke="#000" stroke-width="0.80" stroke-linejoin="round"/>
  <polygon points="336.2,206.8 400.0,400.0 309.4,272.6" fill="hsl(10.0,65%,37.1%)" stroke="#000" stroke-width="0.80" stroke-linejoin="round"/>
  <polygon points="210.6,219.7 400.0,0.0 323.6,147.8" fill="hsl(10.0,65%,46.2%)" stroke="#000" stroke-width="0.80" stroke-linejoin="round"/>
  <polygon points="400.0,0.0 336.2,206.8 323.6,147.8" fill="hsl(10.0,65%,53.9%)" stroke="#000" stroke-width="0.80" stroke-linejoin="round"/>
  <polygon points="336.2,206.8 210.6,219.7 323.6,147.8" fill="hsl(10.0,65%,49.2%)" stroke="#000" stroke-width="0.80" stroke-linejoin="round"/>
  <polygon points="400.0,400.0 0.0,400.0 206.5,385.8" fill="hsl(10.0,65%,54.0%)" stroke="#000" stroke-width="0.80" stroke-linejoin="round"/>
  <polygon points="0.0,400.0 198.1,331.7 206.5,385.8" fill="hsl(10.0,65%,82.0%)" stroke="#000" stroke-width="0.80" stroke-linejoin="round"/>
  <polygon points="198.1,331.7 400.0,400.0 206.5,385.8" fill="hsl(10.0,65%,71.6%)" stroke="#000" stroke-width="0.80" stroke-linejoin="round"/>
  <polygon points="0.0,400.0 210.6,219.7 136.6,319.3" fill="hsl(10.0,65%,55.8%)" stroke="#000" stroke-width="0.80" stroke-linejoin="round"/>
  <polygon points="210.6,219.7 198.1,331.7 136.6,319.3" fill="hsl(10.0,65%,47.7%)" stroke="#000" stroke-width="0.80" stroke-linejoin="round"/>
  <polygon points="198.1,331.7 0.0,400.0 136.6,319.3" fill="hsl(10.0,65%,49.4%)" stroke="#000" stroke-width="0.80" stroke-linejoin="round"/>
  <polygon points="210.6,219.7 400.0,400.0 276.2,316.5" fill="hsl(10.0,65%,65.1%)" stroke="#000" stroke-width="0.80" stroke-linejoin="round"/>
  <polygon points="400.0,400.0 198.1,331.7 276.2,316.5" fill="hsl(10.0,65%,54.7%)" stroke="#000" stroke-width="0.80" stroke-linejoin="round"/>
  <polygon points="198.1,331.7 210.6,219.7 276.2,316.5" fill="hsl(10.0,65%,66.7%)" stroke="#000" stroke-width="0.80" stroke-linejoin="round"/>
  <polygon points="0.0,400.0 0.0,0.0 19.3,205.9" fill="hsl(10.0,65%,49.2%)" stroke="#000" stroke-width="0.80" stroke-linejoin="round"/>
  <polygon points="0.0,0.0 66.5,215.0 19.3,205.9" fill="hsl(10.0,65%,59.9%)" stroke="#000" stroke-width="0.80" stroke-linejoin="round"/>
  <polygon points="66.5,215.0 0.0,400.0 19.3,205.9" fill="hsl(10.0,65%,60.1%)" stroke="#000" stroke-width="0.80" stroke-linejoin="round"/>
  <polygon points="0.0,0.0 210.6,219.7 83.2,137.5" fill="hsl(10.0,65%,47.3%)" stroke="#000" stroke-width="0.80" stroke-linejoin="round"/>
  <polygon points="210.6,219.7 66.5,215.0 83.2,137.5" fill="hsl(10.0,65%,44.7%)" stroke="#000" stroke-width="0.80" stroke-linejoin="round"/>
  <polygon points="66.5,215.0 0.0,0.0 83.2,137.5" fill="hsl(10.0,65%,59.1%)" stroke="#000" stroke-width="0.80" stroke-linejoin="round"/>
  <polygon points="210.6,219.7 0.0,400.0 91.7,276.8" fill="hsl(10.0,65%,69.0%)" stroke="#000" stroke-width="0.80" stroke-linejoin="round"/>
  <polygon points="0.0,400.0 66.5,215.0 91.7,276.8" fill="hsl(10.0,65%,55.6%)" stroke="#000" stroke-width="0.80" stroke-linejoin="round"/>
  <polygon points="66.5,215.0 210.6,219.7 91.7,276.8" fill="hsl(10.0,65%,56.1%)" stroke="#000" stroke-width="0.80" stroke-linejoin="round"/>
</svg>