<svg xmlns="http://www.w3.org/2000/svg" viewBox="0 0 400 400" width="200" height="200" role="img">
  <polygon points="0.0,0.0 400.0,0.0 190.1,173.3" fill="hsl(220.0,65%,55.1%)" stroke="#000" stroke-width="0.80" stroke-linejoin="round"/>
  <polygon points="400.0,0.0 400.0,400.0 323.7,178.4" fill="hsl(220.0,65%,59.5%)" stroke="#000" stroke-width="0.80" stroke-linejoin="round"/>
  <polygon points="400.0,400.0 190.1,173.3 323.7,178.4" fill="hsl(220.0,65%,65.9%)" stroke="#000" stroke-width="0.80" stroke-linejoin="round"/>
  <polygon points="190.1,173.3 400.0,0.0 323.7,178.4" fill="hsl(220.0,65%,52.6%)" stroke="#000" stroke-width="0.80" stroke-linejoin="round"/>
  <polygon points="400.0,400.0 0.0,400.0 199.1,318.9" fill="hsl(220.0,65%,52.5%)" stroke="#000" stroke-width="0.80" stroke-linejoin="round"/>
  <polygon points="0.0,400.0 190.1,173.3 199.1,318.9" fill="hsl(220.0,65%,59.6%)" stroke="#000" stroke-width="0.80" stroke-linejoin="round"/>
  <polygon points="190.1,173.3 400.0,400.0 199.1,318.9" fill="hsl(220.0,65%,59.5%)" stroke="#000" stroke-width="0.80" stroke-linejoin="round"/>
  <polygon points="0.0,400.0 0.0,0.0 66.1,187.7" fill="hsl(220.0,65%,55.4%)" stroke="#000" stroke-width="0.80" stroke-linejoin="round"/>
  <polygon points="0.0,0.0 190.1,173.3 66.1,187.7" fill="hsl(220.0,65%,55.7%)" stroke="#000" stroke-width="0.80" stroke-linejoin="round"/>
  <polygon points="190.1,173.3 0.0,400.0 66.1,187.7" fill="hsl(220.0,65%,43.3%)" stroke="#000" stroke-width="0.80" stroke-linejoin="round"/>
</svg>