<svg xmlns="http://www.w3.org/2000/svg" viewBox="0 0 400 400" width="200" height="200" role="img">
  <polygon points="0.0,0.0 400.0,0.0 205.3,10.4" fill="hsl(220.0,65%,72.8%)" stroke="#000" stroke-width="0.80" stroke-linejoin="round"/>
  <polygon points="400.0,0.0 196.2,29.0 205.3,10.4" fill="hsl(220.0,65%,75.2%)" stroke="#000" stroke-width="0.80" stroke-linejoin="round"/>
  <polygon points="196.2,29.0 0.0,0.0 205.3,10.4" fill="hsl(220.0,65%,48.0%)" stroke="#000" stroke-width="0.80" stroke-linejoin="round"/>
  <polygon points="400.0,0.0 203.7,59.1 196.2,29.0" fill="hsl(220.0,65%,63.7%)" stroke="#000" stroke-width="0.80" stroke-linejoin="round"/>
  <polygon points="203.7,59.1 0.0,0.0 196.2,29.0" fill="hsl(220.0,65%,57.6%)" stroke="#000" stroke-width="0.80" stroke-linejoin="round"/>
  <polygon points="400.0,0.0 212.9,173.0 272.4,77.3" fill="hsl(220.0,65%,39.6%)" stroke="#000" stroke-width="0.80" stroke-linejoin="round"/>
  <polygon points="212.9,173.0 203.7,59.1 272.4,77.3" fill="hsl(220.0,65%,26.9%)" stroke="#000" stroke-width="0.80" stroke-linejoin="round"/>
  <polygon points="203.7,59.1 400.0,0.0 272.4,77.3" fill="hsl(220.0,65%,46.7%)" stroke="#000" stroke-width="0.80" stroke-linejoin="round"/>
  <polygon points="212.9,173.0 0.0,0.0 136.0,77.4" fill="hsl(220.0,65%,46.7%)" stroke="#000" stroke-width="0.80" stroke-linejoin="round"/>
  <polygon points="0.0,0.0 203.7,59.1 136.0,77.4" fill="hsl(220.0,65%,51.9%)" stroke="#000" stroke-width="0.80" stroke-linejoin="round"/>
  <polygon points="203.7,59.1 212.9,173.0 136.0,77.4" fill="hsl(220.0,65%,35.5%)" stroke="#000" stroke-width="0.80" stroke-linejoin="round"/>
  <polygon points="400.0,0.0 400.0,400.0 371.7,190.3" fill="hsl(220.0,65%,25.0%)" stroke="#000" stroke-width="0.80" stroke-linejoin="round"/>
  <polygon points="400.0,400.0 332.8,199.7 371.7,190.3" fill="hsl(220.0,65%,34.0%)" stroke="#000" stroke-width="0.80" stroke-linejoin="round"/>
  <polygon points="332.8,199.7 400.0,0.0 371.7,190.3" fill="hsl(220.0,65%,31.4%)" stroke="#000" stroke-width="0.80" stroke-linejoin="round"/>
  <polygon points="400.0,400.0 212.9,173.0 319.1,261.2" fill="hsl(220.0,65%,51.9%)" stroke="#000" stroke-width="0.80" stroke-linejoin="round"/>
  <polygon points="212.9,173.0 332.8,199.7 319.1,261.2" fill="hsl(220.0,65%,67.3%)" stroke="#000" stroke-width="0.80" stroke-linejoin="round"/>
  <polygon points="332.8,199.7 400.0,400.0 319.1,261.2" fill="hsl(220.0,65%,56.9%)" stroke="#000" stroke-width="0.80" stroke-linejoin="round"/>
  <polygon points="212.9,173.0 400.0,0.0 324.6,129.5" fill="hsl(220.0,65%,60.4%)" stroke="#000" stroke-width="0.80" stroke-linejoin="round"/>
  <polygon points="400.0,0.0 332.8,199.7 324.6,129.5" fill="hsl(220.0,65%,38.4%)" stroke="#000" stroke-width="0.80" stroke-linejoin="round"/>
  <polygon points="332.8,199.7 212.9,173.0 324.6,129.5" fill="hsl(220.0,65%,35.3%)" stroke="#000" stroke-width="0.80" stroke-linejoin="round"/>
  <polygon points="400.0,400.0 0.0,400.0 194.2,388.8" fill="hsl(220.0,65%,49.1%)" stroke="#000" stroke-width="0.80" stroke-linejoin="round"/>
  <polygon points="0.0,400.0 200.8,366.8 194.2,388.8" fill="hsl(220.0,65%,47.3%)" stroke="#000" stroke-width="0.80" stroke-linejoin="round"/>
  <polygon points="200.8,366.8 400.0,400.0 194.2,388.8" fill="hsl(220.0,65%,63.7%)" stroke="#000" stroke-width="0.80" stroke-linejoin="round"/>
  <polygon points="0.0,400.0 202.2,316.0 200.8,366.8" fill="hsl(220.0,65%,44.7%)" stroke="#000" stroke-width="0.80" stroke-linejoin="round"/>
  <polygon points="202.2,316.0 400.0,400.0 200.8,366.8" fill="hsl(220.0,65%,29.7%)" stroke="#000" stroke-width="0.80" stroke-linejoin="round"/>
  <polygon points="0.0,400.0 212.9,173.0 131.6,304.6" fill="hsl(220.0,65%,78.4%)" stroke="#000" stroke-width="0.80" stroke-linejoin="round"/>
  <polygon points="212.9,173.0 202.2,316.0 131.6,304.6" fill="hsl(220.0,65%,69.4%)" stroke="#000" stroke-width="0.80" stroke-linejoin="round"/>
  <polygon points="202.2,316.0 0.0,400.0 131.6,304.6" fill="hsl(220.0,65%,74.8%)" stroke="#000" stroke-width="0.80" stroke-linejoin="round"/>
  <polygon points="212.9,173.0 400.0,400.0 279.7,300.2" fill="hsl(220.0,65%,51.4%)" stroke="#000" stroke-width="0.80" stroke-linejoin="round"/>
  <polygon points="400.0,400.0 202.2,316.0 279.7,300.2" fill="hsl(220.0,65%,72.5%)" stroke="#000" stroke-width="0.80" stroke-linejoin="round"/>
  <polygon points="202.2,316.0 212.9,173.0 279.7,300.2" fill="hsl(220.0,65%,68.9%)" stroke="#000" stroke-width="0.80" stroke-linejoin="round"/>
  <polygon points="0.0,400.0 0.0,0.0 17.8,204.1" fill="hsl(220.0,65%,25.0%)" stroke="#000" stroke-width="0.80" stroke-linejoin="round"/>
  <polygon points="0.0,0.0 64.8,195.0 17.8,204.1" fill="hsl(220.0,65%,33.1%)" stroke="#000" stroke-width="0.80" stroke-linejoin="round"/>
  <polygon points="64.8,195.0 0.0,400.0 17.8,204.1" fill="hsl(220.0,65%,41.9%)" stroke="#000" stroke-width="0.80" stroke-linejoin="round"/>
  <polygon points="0.0,0.0 212.9,173.0 91.6,124.5" fill="hsl(220.0,65%,38.5%)" stroke="#000" stroke-width="0.80" stroke-linejoin="round"/>
  <polygon points="212.9,173.0 64.8,195.0 91.6,124.5" fill="hsl(220.0,65%,40.9%)" stroke="#000" stroke-width="0.80" stroke-linejoin="round"/>
  <polygon points="64.8,195.0 0.0,0.0 91.6,124.5" fill="hsl(220.0,65%,61.7%)" stroke="#000" stroke-width="0.80" stroke-linejoin="round"/>
  <polygon points="212.9,173.0 0.0,400.0 99.8,246.9" fill="hsl(220.0,65%,37.0%)" stroke="#000" stroke-width="0.80" stroke-linejoin="round"/>
  <polygon points="0.0,400.0 64.8,195.0 99.8,246.9" fill="hsl(220.0,65%,25.0%)" stroke="#000" stroke-width="0.80" stroke-linejoin="round"/>
  <polygon points="64.8,195.0 212.9,173.0 99.8,246.9" fill="hsl(220.0,65%,26.2%)" stroke="#000" stroke-width="0.80" stroke-linejoin="round"/>
</svg>