<svg xmlns="http://www.w3.org/2000/svg" viewBox="0 0 400 400" width="200" height="200" role="img">
  <polygon points="0.0,0.0 400.0,0.0 199.0,34.4" fill="hsl(220.0,65%,53.8%)" stroke="#000" stroke-width="1.20" stroke-linejoin="round"/>
  <polygon points="400.0,0.0 205.6,76.0 199.0,34.4" fill="hsl(220.0,65%,51.9%)" stroke="#000" stroke-width="1.20" stroke-linejoin="round"/>
  <polygon points="205.6,76.0 0.0,0.0 199.0,34.4" fill="hsl(220.0,65%,53.3%)" stroke="#000" stroke-width="1.20" stroke-linejoin="round"/>
  <polygon points="400.0,0.0 197.9,198.6 205.6,76.0" fill="hsl(220.0,65%,53.6%)" stroke="#000" stroke-width="1.20" stroke-linejoin="round"/>
  <polygon points="197.9,198.6 0.0,0.0 205.6,76.0" fill="hsl(220.0,65%,52.2%)" stroke="#000" stroke-width="1.20" stroke-linejoin="round"/>
  <polygon points="400.0,0.0 400.0,400.0 370.0,199.8" fill="hsl(220.0,65%,49.2%)" stroke="#000" stroke-width="1.20" stroke-linejoin="round"/>
  <polygon points="400.0,400.0 333.8,204.5 370.0,199.8" fill="hsl(220.0,65%,49.8%)" stroke="#000" stroke-width="1.20" stroke-linejoin="round"/>
  <polygon points="333.8,204.5 400.0,0.0 370.0,199.8" fill="hsl(220.0,65%,49.4%)" stroke="#000" stroke-width="1.20" stroke-linejoin="round"/>
  <polygon points="400.0,400.0 197.9,198.6 333.8,204.5" fill="hsl(220.0,65%,52.6%)" stroke="#000" stroke-width="1.20" stroke-linejoin="round"/>
  <polygon points="197.9,198.6 400.0,0.0 315.2,130.2" fill="hsl(220.0,65%,53.6%)" stroke="#000" stroke-width="1.20" stroke-linejoin="round"/>
  <polygon points="400.0,0.0 333.8,204.5 315.2,130.2" fill="hsl(220.0,65%,53.9%)" stroke="#000" stroke-width="1.20" stroke-linejoin="round"/>
  <polygon points="333.8,204.5 197.9,198.6 315.2,130.2" fill="hsl(220.0,65%,58.5%)" stroke="#000" stroke-width="1.20" stroke-linejoin="round"/>
  <polygon points="400.0,400.0 0.0,400.0 203.9,347.8" fill="hsl(220.0,65%,49.6%)" stroke="#000" stroke-width="1.20" stroke-linejoin="round"/>
  <polygon points="0.0,400.0 197.9,198.6 127.1,320.8" fill="hsl(220.0,65%,47.2%)" stroke="#000" stroke-width="1.20" stroke-linejoin="round"/>
  <polygon points="197.9,198.6 203.9,347.8 127.1,320.8" fill="hsl(220.0,65%,49.0%)" stroke="#000" stroke-width="1.20" stroke-linejoin="round"/>
  <polygon points="203.9,347.8 0.0,400.0 127.1,320.8" fill="hsl(220.0,65%,48.0%)" stroke="#000" stroke-width="1.20" stroke-linejoin="round"/>
  <polygon points="197.9,198.6 400.0,400.0 268.4,306.6" fill="hsl(220.0,65%,54.9%)" stroke="#000" stroke-width="1.20" stroke-linejoin="round"/>
  <polygon points="400.0,400.0 203.9,347.8 268.4,306.6" fill="hsl(220.0,65%,54.3%)" stroke="#000" stroke-width="1.20" stroke-linejoin="round"/>
  <polygon points="203.9,347.8 197.9,198.6 268.4,306.6" fill="hsl(220.0,65%,54.1%)" stroke="#000" stroke-width="1.20" stroke-linejoin="round"/>
  <polygon points="0.0,400.0 0.0,0.0 21.3,205.9" fill="hsl(220.0,65%,54.3%)" stroke="#000" stroke-width="1.20" stroke-linejoin="round"/>
  <polygon points="0.0,0.0 77.8,208.0 21.3,205.9" fill="hsl(220.0,65%,49.8%)" stroke="#000" stroke-width="1.20" stroke-linejoin="round"/>
  <polygon points="77.8,208.0 0.0,400.0 21.3,205.9" fill="hsl(220.0,65%,48.7%)" stroke="#000" stroke-width="1.20" stroke-linejoin="round"/>
  <polygon points="0.0,0.0 197.9,198.6 77.8,208.0" fill="hsl(220.0,65%,56.6%)" stroke="#000" stroke-width="1.20" stroke-linejoin="round"/>
  <polygon points="197.9,198.6 0.0,400.0 77.8,208.0" fill="hsl(220.0,65%,51.6%)" stroke="#000" stroke-width="1.20" stroke-linejoin="round"/>
</svg>