<svg xmlns="http://www.w3.org/2000/svg" viewBox="0 0 400 400" width="200" height="200" role="img">
  <polygon points="0.0,0.0 400.0,0.0 198.7,23.4" fill="hsl(220.0,65%,82.0%)"/>
  <polygon points="400.0,0.0 192.4,67.6 198.7,23.4" fill="hsl(220.0,65%,82.0%)"/>
  <polygon points="192.4,67.6 0.0,0.0 198.7,23.4" fill="hsl(220.0,65%,70.4%)"/>
  <polygon points="400.0,0.0 179.2,204.2 266.1,97.1" fill="hsl(220.0,65%,40.8%)"/>
  <polygon points="179.2,204.2 192.4,67.6 266.1,97.1" fill="hsl(220.0,65%,66.5%)"/>
  <polygon points="192.4,67.6 400.0,0.0 266.1,97.1" fill="hsl(220.0,65%,65.8%)"/>
  <polygon points="179.2,204.2 0.0,0.0 121.8,89.8" fill="hsl(220.0,65%,65.0%)"/>
  <polygon points="0.0,0.0 192.4,67.6 121.8,89.8" fill="hsl(220.0,65%,55.8%)"/>
  <polygon points="192.4,67.6 179.2,204.2 121.8,89.8" fill="hsl(220.0,65%,38.1%)"/>
  <polygon points="400.0,0.0 400.0,400.0 362.1,188.5" fill="hsl(220.0,65%,28.0%)"/>
  <polygon points="400.0,400.0 317.4,182.9 362.1,188.5" fill="hsl(220.0,65%,31.5%)"/>
  <polygon points="317.4,182.9 400.0,0.0 362.1,188.5" fill="hsl(220.0,65%,51.3%)"/>
  <polygon points="400.0,400.0 179.2,204.2 303.1,251.9" fill="hsl(220.0,65%,41.4%)"/>
  <polygon points="179.2,204.2 317.4,182.9 303.1,251.9" fill="hsl(220.0,65%,45.2%)"/>
  <polygon points="317.4,182.9 400.0,400.0 303.1,251.9" fill="hsl(220.0,65%,58.1%)"/>
  <polygon points="179.2,204.2 400.0,0.0 317.4,182.9" fill="hsl(220.0,65%,33.7%)"/>
  <polygon points="400.0,400.0 0.0,400.0 204.8,376.3" fill="hsl(220.0,65%,51.3%)"/>
  <polygon points="0.0,400.0 201.7,324.3 204.8,376.3" fill="hsl(220.0,65%,34.5%)"/>
  <polygon points="201.7,324.3 400.0,400.0 204.8,376.3" fill="hsl(220.0,65%,51.8%)"/>
  <polygon points="0.0,400.0 179.2,204.2 201.7,324.3" fill="hsl(220.0,65%,36.3%)"/>
  <polygon points="179.2,204.2 400.0,400.0 201.7,324.3" fill="hsl(220.0,65%,27.8%)"/>
  <polygon points="0.0,400.0 0.0,0.0 66.7,199.3" fill="hsl(220.0,65%,57.5%)"/>
  <polygon points="0.0,0.0 179.2,204.2 66.7,199.3" fill="hsl(220.0,65%,50.9%)"/>
  <polygon points="179.2,204.2 0.0,400.0 66.7,199.3" fill="hsl(220.0,65%,66.8%)"/>
</svg>