<svg xmlns="http://www.w3.org/2000/svg" viewBox="0 0 400 400" width="200" height="200" role="img">
  <polygon points="0.0,0.0 400.0,0.0 205.3,29.5" fill="hsl(220.0,65%,67.2%)" stroke="#000" stroke-width="1.00" stroke-linejoin="round"/>
  <polygon points="400.0,0.0 220.7,75.5 205.3,29.5" fill="hsl(220.0,65%,69.9%)" stroke="#000" stroke-width="1.00" stroke-linejoin="round"/>
  <polygon points="220.7,75.5 0.0,0.0 205.3,29.5" fill="hsl(220.0,65%,39.6%)" stroke="#000" stroke-width="1.00" stroke-linejoin="round"/>
  <polygon points="400.0,0.0 215.6,194.5 220.7,75.5" fill="hsl(220.0,65%,27.0%)" stroke="#000" stroke-width="1.00" stroke-linejoin="round"/>
  <polygon points="215.6,194.5 0.0,0.0 220.7,75.5" fill="hsl(220.0,65%,46.9%)" stroke="#000" stroke-width="1.00" stroke-linejoin="round"/>
  <polygon points="400.0,0.0 400.0,400.0 345.0,187.2" fill="hsl(220.0,65%,30.2%)" stroke="#000" stroke-width="1.00" stroke-linejoin="round"/>
  <polygon points="400.0,400.0 215.6,194.5 331.4,262.8" fill="hsl(220.0,65%,25.0%)" stroke="#000" stroke-width="1.00" stroke-linejoin="round"/>
  <polygon points="215.6,194.5 345.0,187.2 331.4,262.8" fill="hsl(220.0,65%,40.3%)" stroke="#000" stroke-width="1.00" stroke-linejoin="round"/>
  <polygon points="345.0,187.2 400.0,400.0 331.4,262.8" fill="hsl(220.0,65%,44.7%)" stroke="#000" stroke-width="1.00" stroke-linejoin="round"/>
  <polygon points="215.6,194.5 400.0,0.0 345.0,187.2" fill="hsl(220.0,65%,25.0%)" stroke="#000" stroke-width="1.00" stroke-linejoin="round"/>
  <polygon points="400.0,400.0 0.0,400.0 208.0,378.5" fill="hsl(220.0,65%,43.6%)" stroke="#000" stroke-width="1.00" stroke-linejoin="round"/>
  <polygon points="0.0,400.0 224.6,332.0 208.0,378.5" fill="hsl(220.0,65%,52.1%)" stroke="#000" stroke-width="1.00" stroke-linejoin="round"/>
  <polygon points="224.6,332.0 400.0,400.0 208.0,378.5" fill="hsl(220.0,65%,49.9%)" stroke="#000" stroke-width="1.00" stroke-linejoin="round"/>
  <polygon points="0.0,400.0 215.6,194.5 149.2,301.1" fill="hsl(220.0,65%,77.2%)" stroke="#000" stroke-width="1.00" stroke-linejoin="round"/>
  <polygon points="215.6,194.5 224.6,332.0 149.2,301.1" fill="hsl(220.0,65%,56.4%)" stroke="#000" stroke-width="1.00" stroke-linejoin="round"/>
  <polygon points="224.6,332.0 0.0,400.0 149.2,301.1" fill="hsl(220.0,65%,61.9%)" stroke="#000" stroke-width="1.00" stroke-linejoin="round"/>
  <polygon points="215.6,194.5 400.0,400.0 224.6,332.0" fill="hsl(220.0,65%,38.8%)" stroke="#000" stroke-width="1.00" stroke-linejoin="round"/>
  <polygon points="0.0,400.0 0.0,0.0 27.9,199.5" fill="hsl(220.0,65%,62.6%)" stroke="#000" stroke-width="1.00" stroke-linejoin="round"/>
  <polygon points="0.0,0.0 79.5,199.3 27.9,199.5" fill="hsl(220.0,65%,47.2%)" stroke="#000" stroke-width="1.00" stroke-linejoin="round"/>
  <polygon points="79.5,199.3 0.0,400.0 27.9,199.5" fill="hsl(220.0,65%,38.8%)" stroke="#000" stroke-width="1.00" stroke-linejoin="round"/>
  <polygon points="0.0,0.0 215.6,194.5 107.6,128.3" fill="hsl(220.0,65%,66.1%)" stroke="#000" stroke-width="1.00" stroke-linejoin="round"/>
  <polygon points="215.6,194.5 79.5,199.3 107.6,128.3" fill="hsl(220.0,65%,66.2%)" stroke="#000" stroke-width="1.00" stroke-linejoin="round"/>
  <polygon points="79.5,199.3 0.0,0.0 107.6,128.3" fill="hsl(220.0,65%,40.2%)" stroke="#000" stroke-width="1.00" stroke-linejoin="round"/>
  <polygon points="215.6,194.5 0.0,400.0 79.5,199.3" fill="hsl(220.0,65%,53.9%)" stroke="#000" stroke-width="1.00" stroke-linejoin="round"/>
</svg>